<svg id="Layer_2" data-name="Layer 2" xmlns="http://www.w3.org/2000/svg" viewBox="0 0 1000 800"><defs><style>.cls-1{fill:#8cc542;}.cls-2{fill:#487020;}.cls-3{fill:#238cb9;}.cls-4{fill:#29aae1;}</style></defs><polygon class="cls-1" points="359.07 472.02 433.62 545.35 523.3 435.66 431.62 490.42 359.07 472.02"/><polygon class="cls-2" points="359.42 419.41 174.47 629.28 359.07 472.02 431.62 490.42 359.42 419.41"/><polygon class="cls-2" points="825.53 262.85 748.36 295.35 769.47 311.03 608.33 484.82 793.82 329.23 812.89 344.54 825.53 262.85"/><polygon class="cls-2" points="523.6 377.93 431.62 490.42 523.3 435.66 608.33 484.82 523.6 377.93"/><polygon class="cls-1" points="523.3 435.66 607.78 542.23 793.82 329.23 608.33 484.82 523.3 435.66"/><polygon class="cls-3" points="608.33 458.17 631.78 432.88 631.78 170.72 558.82 395.7 608.33 458.17"/><polygon class="cls-4" points="558.82 395.7 631.78 170.72 558.82 170.72 558.82 395.7"/><polygon class="cls-4" points="463.52 424.75 536.48 235.71 463.52 235.71 463.52 424.75"/><polygon class="cls-3" points="523.6 351.27 536.48 367.53 536.48 235.71 463.52 424.75 523.6 351.27"/><polygon class="cls-3" points="431.62 463.77 441.18 452.07 441.18 314.23 368.22 401.42 431.62 463.77"/><polygon class="cls-4" points="368.22 401.42 441.18 314.23 368.22 314.23 368.22 401.42"/></svg>