<svg id="Layer_2" data-name="Layer 2" xmlns="http://www.w3.org/2000/svg" viewBox="0 0 721.1 669.03"><defs><style>.cls-1{font-size:191.58px;font-family:BritannicBold, Britannic Bold;}.cls-1,.cls-2{fill:#fff;}</style></defs><text class="cls-1" transform="translate(0 621.14)">Carolina</text><path class="cls-2" d="M274.14,290.54l44.21,33.16a5.83,5.83,0,0,0,8.53-1.7c9.11-15.45,38.82-56.38,95.77-51.92,62.85,4.93,81.46,55.2,84.62,65.47a5.74,5.74,0,0,1,0,3.48c-4.28,13.34-31.93,104-9.27,154.4a5.65,5.65,0,0,1-.94,6.13c-14.14,15.59-85.5,85.75-147.85-9.26a5.83,5.83,0,0,0-5.93-2.52l-59.84,11a5.82,5.82,0,0,0-4.59,4.25c-4.7,17.9-23.11,98,14.66,130.14a5.74,5.74,0,0,0,6,.86l37.8-16.2a5.83,5.83,0,0,0,2.44-8.77c-5.71-7.87-14.6-23.09-13.94-40.84a5.84,5.84,0,0,1,9.9-4c21,20.31,83.87,65.75,183.13,6.44a5.83,5.83,0,0,1,7.23,1c21.28,22.65,146.84,143.59,274.54-7.2a5.85,5.85,0,0,0-.79-8.33l-40.18-32.37a5.85,5.85,0,0,0-8.2.87c-17.68,21.74-98.4,108-179.95-14.7a6,6,0,0,1,1.15-7.93c10.31-8.88,33.59-42.29,12.64-156.08a5.8,5.8,0,0,1,1.72-5.29c13.34-12.59,82.6-71.1,142.74,7.91a5.82,5.82,0,0,0,5.18,2.26l65.41-6.17a5.83,5.83,0,0,0,5.14-4.48c4.07-17.44,17.16-86.63-18.67-131.12a5.82,5.82,0,0,0-7-1.58l-35.54,16.72a5.82,5.82,0,0,0-2.13,8.85,66,66,0,0,1,14.09,41,5.84,5.84,0,0,1-9.67,4.36c-22.17-19.11-87-61-183.62-5.34a5.84,5.84,0,0,1-7.38-1.3c-19.72-23.51-132.32-142.26-282.06,10A5.84,5.84,0,0,0,274.14,290.54Z" transform="translate(-179.45 -205.48)"/></svg>